<?xml version="1.0" standalone="no"?>
<!DOCTYPE svg PUBLIC "-//W3C//DTD SVG 20010904//EN"
 "http://www.w3.org/TR/2001/REC-SVG-20010904/DTD/svg10.dtd">
<svg version="1.0" xmlns="http://www.w3.org/2000/svg"
 width="147.000000pt" height="170.000000pt" viewBox="0 0 147.000000 170.000000"
 preserveAspectRatio="xMidYMid meet">

<g transform="translate(0.000000,170.000000) scale(0.100000,-0.100000)"
fill="#000000" stroke="none">
<path d="M700 1670 c-23 -55 -62 -64 -108 -25 -43 36 -68 33 -76 -10 -4 -22
-17 -41 -33 -52 -24 -16 -27 -16 -63 4 -51 27 -70 16 -70 -42 0 -54 -19 -67
-88 -63 l-47 3 3 -53 c4 -67 -8 -82 -65 -82 -53 0 -62 -16 -38 -69 24 -55 14
-79 -41 -92 -35 -9 -44 -16 -44 -33 0 -13 11 -33 25 -46 36 -34 30 -69 -17
-99 -49 -31 -48 -54 2 -86 49 -31 54 -68 15 -105 -37 -35 -29 -59 25 -79 53
-19 62 -45 32 -95 -26 -43 -11 -66 44 -66 61 0 68 -9 60 -74 -9 -65 0 -74 60
-57 51 14 74 -6 74 -65 0 -53 20 -62 75 -34 49 25 73 12 90 -46 14 -50 36 -54
81 -15 19 17 39 31 45 31 13 0 69 -58 69 -71 0 -5 11 -9 24 -9 17 0 31 10 45
34 18 29 39 46 56 46 3 0 20 -14 39 -31 46 -40 67 -35 86 21 13 36 21 46 42
48 15 2 40 -4 57 -12 43 -23 61 -12 61 35 0 44 30 83 58 75 54 -16 69 -16 81
-2 9 11 10 20 2 35 -15 26 -14 64 1 79 7 7 31 12 55 12 56 0 70 22 41 68 -30
49 -19 79 37 94 57 15 65 42 25 81 -17 16 -30 37 -30 47 0 18 53 70 71 70 5 0
9 10 9 23 0 16 -12 31 -37 48 -49 31 -52 58 -13 102 36 41 32 63 -13 73 -37 7
-67 31 -67 52 0 8 9 30 21 49 27 43 13 63 -42 63 -60 0 -82 34 -60 94 14 35
-6 48 -58 40 -55 -9 -81 13 -81 68 0 48 -19 57 -65 32 -28 -15 -38 -16 -60 -6
-26 12 -29 17 -39 63 -9 39 -39 42 -73 7 -37 -39 -70 -35 -102 15 -31 47 -63
50 -81 7z m240 -123 c92 -33 195 -102 260 -175 217 -243 201 -620 -35 -846
-239 -230 -607 -232 -848 -6 -125 118 -185 246 -194 415 -6 125 11 207 69 318
77 149 234 271 400 313 87 22 257 13 348 -19z"/>
<path d="M710 1476 c0 -2 8 -10 18 -17 15 -13 16 -12 3 4 -13 16 -21 21 -21
13z"/>
<path d="M792 1460 c0 -14 2 -19 5 -12 2 6 2 18 0 25 -3 6 -5 1 -5 -13z"/>
<path d="M822 1460 c0 -14 2 -19 5 -12 2 6 2 18 0 25 -3 6 -5 1 -5 -13z"/>
<path d="M573 1455 c-3 -9 -3 -18 -1 -21 3 -3 8 4 11 16 6 23 -1 27 -10 5z"/>
<path d="M963 1443 c-7 -2 -13 -9 -13 -15 0 -6 6 -6 15 2 8 6 20 8 26 4 8 -4
9 -3 5 4 -8 13 -13 14 -33 5z"/>
<path d="M510 1426 c0 -8 4 -17 9 -20 5 -4 7 3 4 14 -6 23 -13 26 -13 6z"/>
<path d="M339 1393 c-13 -16 -12 -17 4 -4 9 7 17 15 17 17 0 8 -8 3 -21 -13z"/>
<path d="M486 1383 c-6 -14 -5 -15 5 -6 7 7 10 15 7 18 -3 3 -9 -2 -12 -12z"/>
<path d="M643 1385 c-220 -48 -363 -257 -332 -483 19 -136 107 -255 236 -319
65 -32 86 -37 163 -41 232 -11 413 132 452 358 39 227 -117 446 -351 490 -67
13 -90 12 -168 -5z m167 -5 c80 -15 154 -53 214 -110 215 -203 163 -546 -102
-677 -74 -37 -79 -38 -187 -38 -106 0 -113 2 -180 34 -168 83 -259 255 -234
439 24 170 157 311 329 348 71 16 95 16 160 4z"/>
<path d="M655 1299 c-9 -28 -12 -128 -3 -123 4 2 9 0 13 -6 3 -5 -3 -15 -15
-22 -24 -15 -26 -28 -5 -28 8 0 15 -4 15 -10 0 -5 -5 -10 -11 -10 -8 0 -8 -5
1 -15 10 -12 9 -15 -6 -15 -16 -1 -15 -5 9 -26 20 -17 26 -28 19 -37 -5 -7
-12 -29 -15 -50 -7 -47 -23 -67 -52 -67 -60 0 -70 72 -28 202 28 89 36 179 16
199 -9 9 -21 9 -45 2 -32 -9 -33 -11 -30 -58 1 -28 9 -56 18 -65 13 -13 14
-13 8 3 -3 10 1 28 11 43 9 14 14 35 12 46 -3 12 -1 18 6 15 24 -7 18 -79 -12
-173 -53 -162 -37 -239 48 -239 24 0 40 -4 38 -10 -2 -5 -31 -10 -65 -10 -52
1 -62 -2 -62 -16 0 -10 -3 -24 -6 -33 -4 -11 -1 -16 10 -16 19 0 21 -11 5 -27
-9 -9 -7 -16 5 -28 12 -13 14 -21 6 -30 -8 -9 -7 -14 3 -18 8 -3 17 -19 20
-35 7 -35 23 -43 71 -35 23 3 36 12 39 25 3 11 10 17 16 13 14 -8 14 1 0 26
-8 16 -17 18 -43 13 -37 -6 -46 1 -51 46 -4 29 -3 30 35 30 22 0 40 -4 40 -10
0 -20 29 3 45 36 19 40 21 41 35 14 8 -15 7 -26 -6 -45 -16 -24 -16 -27 1 -39
11 -8 16 -22 14 -37 -3 -18 5 -34 33 -62 21 -21 38 -34 38 -29 0 6 12 12 28
14 48 9 57 13 68 32 9 14 9 27 1 43 -13 28 -24 29 -53 2 l-22 -20 -21 27 c-30
39 -25 78 12 82 23 3 26 7 21 28 -5 18 -2 24 10 24 14 0 21 -11 17 -32 0 -5 3
-8 9 -8 5 0 10 7 10 15 0 8 7 15 16 15 12 0 15 7 11 26 -3 16 0 28 9 31 11 4
10 9 -3 29 -12 19 -24 24 -54 24 -22 0 -39 -4 -39 -8 0 -5 -27 -13 -60 -18
-74 -12 -77 -3 -16 58 24 25 47 55 51 67 5 16 12 20 26 16 13 -4 19 -2 19 9 0
9 7 16 15 16 9 0 12 6 9 15 -8 20 20 20 36 0 20 -24 34 -2 26 41 -6 27 -10 34
-19 25 -15 -15 -40 -14 -34 2 2 6 -3 17 -11 23 -9 7 -12 18 -8 32 6 18 12 20
39 15 30 -5 31 -5 12 10 -20 16 -20 16 2 24 21 8 21 10 7 39 -19 38 -56 40
-64 3 -8 -38 -53 -99 -74 -99 -12 0 -16 5 -13 14 4 10 -2 16 -21 18 -31 3 -36
25 -9 42 13 8 20 8 26 -3 7 -11 10 -9 16 8 4 13 5 23 3 24 -1 1 -13 8 -25 15
-13 6 -45 12 -72 12 -42 0 -51 -3 -56 -21z m100 1 c3 -5 -3 -10 -15 -10 -12 0
-18 5 -15 10 3 6 10 10 15 10 5 0 12 -4 15 -10z"/>
<path d="M1026 1385 c-9 -26 -7 -32 5 -12 6 10 9 21 6 23 -2 3 -7 -2 -11 -11z"/>
<path d="M299 1353 c-13 -16 -12 -17 4 -4 9 7 17 15 17 17 0 8 -8 3 -21 -13z"/>
<path d="M1050 1355 c-7 -9 -8 -15 -2 -15 5 0 12 7 16 15 3 8 4 15 2 15 -2 0
-9 -7 -16 -15z"/>
<path d="M400 1347 c12 -16 12 -20 -1 -28 -9 -5 -10 -9 -2 -9 22 0 26 22 7 38
-17 16 -17 16 -4 -1z"/>
<path d="M1077 1341 c-4 -17 -3 -21 5 -13 5 5 8 16 6 23 -3 8 -7 3 -11 -10z"/>
<path d="M1170 1346 c0 -2 8 -10 18 -17 15 -13 16 -12 3 4 -13 16 -21 21 -21
13z"/>
<path d="M340 1306 c0 -2 8 -10 18 -17 15 -13 16 -12 3 4 -13 16 -21 21 -21
13z"/>
<path d="M1120 1285 c-11 -13 -11 -18 0 -28 10 -9 11 -9 6 1 -4 7 -2 19 4 27
7 8 10 15 7 15 -2 0 -10 -7 -17 -15z"/>
<path d="M291 1276 c-10 -11 -7 -17 11 -30 12 -9 27 -16 33 -16 5 1 -3 8 -18
16 -23 12 -26 18 -16 30 6 8 9 14 6 14 -2 0 -10 -6 -16 -14z"/>
<path d="M320 1266 c0 -2 7 -6 15 -10 8 -3 15 -1 15 4 0 6 -7 10 -15 10 -8 0
-15 -2 -15 -4z"/>
<path d="M1176 1202 c-2 -4 4 -8 14 -8 10 0 16 4 14 8 -3 4 -9 8 -14 8 -5 0
-11 -4 -14 -8z"/>
<path d="M1190 1170 c-9 -6 -10 -10 -3 -10 6 0 15 5 18 10 8 12 4 12 -15 0z"/>
<path d="M1190 1129 c0 -5 5 -7 10 -4 6 3 10 8 10 11 0 2 -4 4 -10 4 -5 0 -10
-5 -10 -11z"/>
<path d="M240 1115 c0 -7 30 -13 34 -7 3 4 -4 9 -15 9 -10 1 -19 0 -19 -2z"/>
<path d="M1218 1073 c6 -2 18 -2 25 0 6 3 1 5 -13 5 -14 0 -19 -2 -12 -5z"/>
<path d="M218 1063 c7 -3 16 -2 19 1 4 3 -2 6 -13 5 -11 0 -14 -3 -6 -6z"/>
<path d="M1225 1050 c-16 -7 -17 -9 -3 -9 9 -1 20 4 23 9 7 11 7 11 -20 0z"/>
<path d="M260 800 c0 -5 7 -7 15 -4 8 4 15 8 15 10 0 2 -7 4 -15 4 -8 0 -15
-4 -15 -10z"/>
<path d="M254 739 c-3 -6 -2 -15 4 -21 13 -13 42 -3 41 14 0 10 -2 10 -6 1 -2
-7 -12 -13 -20 -13 -9 0 -13 6 -9 15 6 17 0 20 -10 4z"/>
<path d="M1155 700 c-3 -5 -1 -10 4 -10 6 0 11 5 11 10 0 6 -2 10 -4 10 -3 0
-8 -4 -11 -10z"/>
<path d="M284 689 c-3 -6 -1 -16 5 -22 9 -9 10 -7 5 7 -6 16 -4 18 14 14 12
-4 20 -2 16 3 -7 12 -31 11 -40 -2z"/>
<path d="M1140 676 c0 -3 9 -10 20 -16 11 -6 20 -8 20 -6 0 3 -9 10 -20 16
-11 6 -20 8 -20 6z"/>
<path d="M310 643 c0 -22 22 -26 38 -7 16 17 16 17 -1 4 -16 -12 -20 -12 -28
1 -5 9 -9 10 -9 2z"/>
<path d="M360 611 c-13 -26 2 -34 26 -16 19 15 19 15 0 8 -15 -5 -18 -3 -13
10 9 23 0 21 -13 -2z"/>
<path d="M1073 593 c9 -2 23 -2 30 0 6 3 -1 5 -18 5 -16 0 -22 -2 -12 -5z"/>
<path d="M400 575 c-11 -13 -11 -18 0 -28 10 -9 11 -9 6 1 -4 7 -2 19 4 27 7
8 10 15 7 15 -2 0 -10 -7 -17 -15z"/>
<path d="M1144 558 l-29 -33 33 29 c17 17 32 31 32 33 0 8 -8 1 -36 -29z"/>
<path d="M441 537 c-13 -21 -12 -21 5 -5 10 10 16 20 13 22 -3 3 -11 -5 -18
-17z"/>
<path d="M147 162 c-9 -10 -17 -34 -17 -54 0 -47 27 -70 77 -66 36 3 38 5 38
38 0 31 -3 35 -27 38 -16 2 -28 -1 -28 -7 0 -6 7 -11 15 -11 8 0 15 -9 15 -20
0 -29 -36 -26 -56 5 -15 23 -15 27 1 51 14 22 22 25 52 21 24 -4 33 -2 30 6
-7 21 -81 20 -100 -1z"/>
<path d="M887 173 c-18 -17 -6 -53 24 -68 36 -19 33 -40 -5 -40 -37 1 -27 -19
12 -23 26 -3 34 1 43 22 13 29 2 51 -32 61 -28 9 -24 35 6 35 14 0 25 5 25 10
0 11 -63 14 -73 3z"/>
<path d="M1000 114 c-22 -65 -20 -95 4 -61 16 21 62 23 70 2 6 -18 26 -20 26
-4 0 7 -10 38 -21 70 -30 82 -50 80 -79 -7z m55 -1 c5 -19 3 -23 -15 -23 -16
0 -20 4 -16 16 3 9 6 23 6 32 0 21 15 5 25 -25z"/>
<path d="M1130 110 l0 -70 34 0 c49 0 88 45 56 65 -6 4 -8 16 -5 26 9 29 -12
49 -51 49 l-34 0 0 -70z m58 33 c-5 -26 -38 -29 -38 -4 0 15 6 21 21 21 14 0
19 -5 17 -17z m7 -63 c0 -8 -10 -16 -22 -18 -18 -3 -23 2 -23 18 0 16 5 21 23
18 12 -2 22 -10 22 -18z"/>
<path d="M1266 165 c-21 -21 -21 -89 0 -110 19 -19 75 -17 82 3 3 9 -3 11 -20
7 -36 -8 -50 7 -46 51 3 37 5 39 36 37 42 -1 38 21 -5 25 -18 2 -37 -3 -47
-13z"/>
<path d="M280 93 c0 -29 5 -53 10 -53 6 0 10 16 10 36 0 28 5 37 20 41 29 8
20 26 -13 27 -26 2 -27 0 -27 -51z"/>
<path d="M372 134 c-24 -17 -30 -62 -10 -82 15 -15 61 -15 76 0 20 20 15 76
-7 88 -26 13 -33 13 -59 -6z m48 -23 c13 -25 3 -51 -20 -51 -10 0 -21 7 -24
16 -7 17 10 54 24 54 5 0 14 -9 20 -19z"/>
<path d="M482 100 l3 -55 43 -1 43 -1 -3 49 c-4 57 -21 64 -28 11 -7 -50 -34
-52 -38 -3 -6 61 -23 61 -20 0z"/>
<path d="M600 77 c0 -45 4 -77 10 -77 6 0 10 11 10 24 0 19 4 23 20 19 29 -8
50 14 50 52 0 41 -24 64 -50 48 -13 -9 -20 -9 -29 0 -8 8 -11 -9 -11 -66z m65
4 c-4 -13 -13 -21 -23 -19 -21 4 -27 34 -11 54 11 13 14 13 27 1 9 -9 11 -23
7 -36z"/>
<path d="M730 130 c-38 -38 -18 -90 35 -90 41 0 47 17 8 22 -42 5 -41 28 1 28
40 0 47 17 18 43 -24 22 -38 21 -62 -3z m48 -18 c2 -7 -6 -12 -17 -12 -21 0
-27 11 -14 24 9 9 26 2 31 -12z"/>
</g>
</svg>
